<svg width="914" height="400" fill="none" xmlns="http://www.w3.org/2000/svg"><style>#CL0 {fill: #131415;}@media (prefers-color-scheme: dark) {#CL0 {fill: #D3DEEA;}}</style><path d="M398.616 213.766v-23.342h12.986v23.342h6.616V185H392v28.766h6.616Zm34.813.329c3.013 0 5.314-.959 6.903-2.877v2.548h6.123v-22.109h-6.41V194c-1.589-1.781-3.795-2.672-6.616-2.672-2.082 0-3.966.466-5.651 1.398-1.685.931-3.007 2.26-3.965 3.986-.959 1.726-1.439 3.726-1.439 6 0 2.273.48 4.273 1.439 5.999.958 1.726 2.28 3.055 3.965 3.986 1.685.932 3.569 1.398 5.651 1.398Zm1.109-5.26c-1.644 0-3-.555-4.068-1.665-1.069-1.109-1.603-2.596-1.603-4.458 0-1.863.534-3.35 1.603-4.459 1.068-1.11 2.424-1.664 4.068-1.664 1.617 0 2.959.554 4.027 1.664 1.069 1.109 1.603 2.596 1.603 4.459 0 1.862-.534 3.349-1.603 4.458-1.068 1.11-2.41 1.665-4.027 1.665Zm37.114 4.931v-22.109h-6.411v9.287a10.742 10.742 0 0 1-4.726 1.069c-1.315 0-2.321-.301-3.02-.904-.699-.603-1.048-1.575-1.048-2.918v-6.534h-6.411v6.945c0 2.849.761 4.952 2.281 6.308 1.521 1.356 3.774 2.034 6.76 2.034 2.247 0 4.301-.466 6.164-1.397v8.219h6.411Zm10.373 0v-8.383h3.329l5.917 8.383h7.562l-8.26-11.507 7.725-10.602h-6.821l-6 8.589h-3.452v-8.589h-6.41v22.109h6.41Zm27.827.329c3.013 0 5.315-.959 6.904-2.877v2.548h6.123v-22.109h-6.411V194c-1.589-1.781-3.794-2.672-6.616-2.672-2.082 0-3.966.466-5.651 1.398-1.685.931-3.006 2.26-3.965 3.986-.959 1.726-1.439 3.726-1.439 6 0 2.273.48 4.273 1.439 5.999.959 1.726 2.28 3.055 3.965 3.986 1.685.932 3.569 1.398 5.651 1.398Zm1.109-5.26c-1.643 0-3-.555-4.068-1.665-1.068-1.109-1.603-2.596-1.603-4.458 0-1.863.535-3.35 1.603-4.459 1.068-1.11 2.425-1.664 4.068-1.664 1.617 0 2.959.554 4.027 1.664 1.069 1.109 1.603 2.596 1.603 4.459 0 1.862-.534 3.349-1.603 4.458-1.068 1.11-2.41 1.665-4.027 1.665Z" id="CL0"/></svg>